<?xml version="1.0" standalone="no"?>
<!DOCTYPE svg PUBLIC "-//W3C//DTD SVG 20010904//EN"
 "http://www.w3.org/TR/2001/REC-SVG-20010904/DTD/svg10.dtd">
<svg version="1.0" xmlns="http://www.w3.org/2000/svg"
 width="512.000000pt" height="512.000000pt" viewBox="0 0 512.000000 512.000000"
 preserveAspectRatio="xMidYMid meet">

<g transform="translate(0.000000,512.000000) scale(0.100000,-0.100000)"
fill="#000" stroke="#000">
<path d="M2457 4590 c-121 -31 -217 -125 -241 -236 l-7 -31 -136 -6 c-75 -4
-183 -7 -240 -7 l-103 0 0 -110 0 -110 -325 0 -325 0 0 -1790 0 -1790 1480 0
1480 0 0 1790 0 1790 -330 0 -330 0 0 110 0 110 -239 0 -239 0 -7 38 c-18 97
-78 173 -174 219 -44 20 -74 26 -141 29 -47 2 -102 -1 -123 -6z m212 -116 c32
-16 64 -43 82 -67 31 -43 59 -123 59 -169 l0 -28 229 0 228 0 7 -77 c3 -42 6
-102 6 -133 l0 -57 -397 -6 c-219 -4 -543 -7 -720 -7 l-323 0 0 133 0 134 128
6 c70 4 172 7 228 7 l101 0 6 50 c23 190 202 295 366 214z m-929 -564 l0 -80
820 0 820 0 0 80 0 80 275 0 275 0 0 -1690 0 -1690 -1375 0 -1375 0 0 1690 0
1690 280 0 280 0 0 -80z"/>
<path d="M2510 4245 l0 -55 50 0 50 0 0 55 0 55 -50 0 -50 0 0 -55z"/>
<path d="M1728 3413 l-176 -176 -60 51 c-33 29 -64 52 -69 52 -5 0 -22 -14
-38 -30 l-29 -30 79 -81 c44 -44 88 -85 99 -91 16 -9 39 10 168 138 82 82 176
179 208 215 l59 66 -32 31 -33 32 -176 -177z"/>
<path d="M2040 3280 l0 -50 815 0 815 0 0 50 0 50 -815 0 -815 0 0 -50z"/>
<path d="M1723 2728 l-171 -171 -60 51 c-33 29 -64 52 -69 52 -10 0 -63 -52
-63 -62 0 -3 43 -45 95 -92 l96 -87 62 48 c88 69 265 247 314 319 l42 61 -27
27 c-16 14 -32 26 -38 26 -5 0 -86 -77 -181 -172z"/>
<path d="M2040 2595 l0 -45 218 0 c120 0 348 -3 505 -7 l287 -6 0 51 0 52
-505 0 -505 0 0 -45z"/>
<path d="M1723 2048 l-173 -173 -59 59 c-63 63 -73 64 -116 16 l-20 -22 95
-89 c52 -49 99 -89 104 -89 4 0 101 92 215 204 l206 205 -29 30 c-17 17 -35
31 -40 31 -6 0 -89 -78 -183 -172z"/>
<path d="M2040 1920 l0 -50 325 0 325 0 0 50 0 50 -325 0 -325 0 0 -50z"/>
<path d="M1723 1358 l-173 -173 -58 58 c-32 31 -62 57 -68 57 -13 0 -64 -53
-64 -67 0 -14 175 -173 190 -173 7 0 105 92 219 204 l206 205 -29 30 c-17 17
-35 31 -40 31 -6 0 -89 -78 -183 -172z"/>
<path d="M2040 1232 l0 -49 426 -7 c235 -3 428 -5 429 -4 1 2 5 27 9 56 l7 52
-436 0 -435 0 0 -48z"/>
</g>
</svg>
