<?xml version="1.0" standalone="no"?>
<!DOCTYPE svg PUBLIC "-//W3C//DTD SVG 20010904//EN"
 "http://www.w3.org/TR/2001/REC-SVG-20010904/DTD/svg10.dtd">
<svg version="1.0" xmlns="http://www.w3.org/2000/svg"
 width="512.000000pt" height="512.000000pt" viewBox="0 0 512.000000 512.000000"
 preserveAspectRatio="xMidYMid meet">

<g transform="translate(0.000000,512.000000) scale(0.100000,-0.100000)"
fill="#000" stroke="none">
<path d="M611 5109 c-155 -31 -281 -99 -391 -209 -95 -94 -150 -186 -192 -320
l-23 -75 0 -1435 0 -1435 23 -75 c78 -249 247 -422 497 -508 l80 -27 1572 -3
1572 -2 3 -443 3 -442 24 -38 c13 -21 42 -50 64 -65 l40 -27 295 -3 c352 -4
406 4 552 75 79 38 109 60 181 132 72 72 94 102 132 181 82 168 78 77 75 1611
l-3 1355 -27 41 c-41 63 -90 88 -170 88 -58 0 -72 -4 -109 -30 -23 -16 -53
-50 -66 -74 l-23 -44 0 -994 0 -994 -28 15 c-15 8 -54 22 -87 32 -57 17 -164
19 -2005 24 l-1945 5 -52 24 c-63 28 -145 112 -175 178 -31 69 -31 217 0 286
30 67 112 150 175 178 49 22 67 24 313 29 l261 5 40 27 c22 15 51 44 64 65
l24 38 3 917 2 917 703 3 702 3 38 24 c21 13 50 42 65 64 23 34 27 52 27 107
0 55 -4 73 -27 107 -15 22 -44 51 -65 64 l-38 24 -702 3 -702 3 -3 248 -3 248
-27 40 c-15 22 -44 51 -65 64 -37 24 -43 24 -298 26 -143 1 -280 -3 -304 -8z
m299 -1488 l0 -1098 -152 -5 c-137 -5 -162 -8 -238 -35 -47 -16 -93 -33 -102
-37 -17 -8 -18 43 -18 986 0 1097 -3 1049 63 1141 76 107 166 146 335 147
l112 0 0 -1099z m3643 -2635 c222 -108 221 -444 -1 -553 -55 -27 -64 -28 -229
-31 l-173 -4 0 312 0 312 173 -4 c166 -3 174 -4 230 -32z"/>
<path d="M4390 5104 c-36 -7 -99 -30 -140 -50 -70 -35 -110 -72 -662 -617
-323 -320 -599 -597 -612 -616 -14 -21 -75 -204 -147 -441 -138 -451 -145
-491 -100 -563 32 -51 87 -86 147 -93 42 -5 113 12 469 111 231 64 434 123
450 131 17 8 299 283 627 612 569 570 597 600 632 672 117 241 74 504 -113
691 -149 149 -347 207 -551 163z m240 -418 c103 -68 118 -210 32 -305 l-37
-42 -143 144 -144 144 43 37 c24 20 57 41 74 46 50 15 133 4 175 -24z m-656
-997 l-366 -366 -201 -56 c-111 -30 -203 -54 -205 -53 -1 2 23 88 54 192 l56
189 372 372 371 373 142 -142 143 -143 -366 -366z"/>
</g>
</svg>
