<?xml version="1.0" standalone="no"?>
<!DOCTYPE svg PUBLIC "-//W3C//DTD SVG 20010904//EN"
 "http://www.w3.org/TR/2001/REC-SVG-20010904/DTD/svg10.dtd">
<svg version="1.0" xmlns="http://www.w3.org/2000/svg"
 width="512.000000pt" height="512.000000pt" viewBox="0 0 512.000000 512.000000"
 preserveAspectRatio="xMidYMid meet">

<g transform="translate(0.000000,512.000000) scale(0.100000,-0.100000)"
fill="#ffffff" stroke="none">
<path d="M2165 4791 c-126 -33 -225 -142 -242 -266 l-6 -45 -174 0 c-171 0
-174 0 -198 -25 l-25 -24 0 -351 0 -351 25 -24 24 -25 671 0 671 0 24 25 25
24 0 351 0 351 -25 24 c-24 25 -27 25 -198 25 l-175 0 -7 48 c-4 26 -21 73
-38 105 -52 99 -141 156 -256 162 -36 2 -79 1 -96 -4z m163 -178 c54 -40 66
-67 72 -164 7 -131 5 -129 226 -129 l174 0 0 -240 0 -240 -560 0 -560 0 0 240
0 240 175 0 c173 0 176 0 200 25 22 21 25 33 25 94 0 103 27 156 95 187 40 19
119 12 153 -13z"/>
<path d="M2000 4080 l0 -80 240 0 240 0 0 80 0 80 -240 0 -240 0 0 -80z"/>
<path d="M866 4469 c-62 -15 -153 -68 -197 -116 -22 -24 -55 -74 -72 -111
l-32 -67 0 -1696 0 -1695 37 -76 c45 -91 103 -147 196 -191 l67 -32 928 -3
927 -2 0 80 0 80 -896 0 c-675 0 -907 3 -938 12 -55 16 -138 99 -154 154 -17
60 -17 3288 0 3348 16 55 99 138 154 154 27 8 117 12 258 12 l216 0 0 80 0 80
-227 -1 c-126 -1 -245 -5 -267 -10z"/>
<path d="M3120 4401 l0 -81 216 0 c141 0 231 -4 258 -12 55 -16 138 -99 154
-154 9 -31 12 -272 12 -978 l0 -936 80 0 80 0 -2 968 -3 967 -32 67 c-44 93
-100 151 -191 196 l-76 37 -248 3 -248 4 0 -81z"/>
<path d="M905 4135 l-25 -24 0 -1631 0 -1631 25 -24 24 -25 896 0 895 0 0 80
0 80 -840 0 -840 0 0 1520 0 1520 160 0 160 0 0 80 0 80 -215 0 c-216 0 -216
0 -240 -25z"/>
<path d="M3120 4080 l0 -80 160 0 160 0 0 -880 0 -880 80 0 80 0 0 935 0 936
-25 24 c-24 25 -24 25 -240 25 l-215 0 0 -80z"/>
<path d="M2320 3280 l0 -80 400 0 400 0 0 80 0 80 -400 0 -400 0 0 -80z"/>
<path d="M1725 3200 c-71 -71 -133 -130 -138 -130 -4 0 -41 23 -82 50 -42 28
-81 53 -89 56 -9 4 -29 -16 -55 -55 -23 -33 -41 -62 -41 -65 0 -3 57 -44 127
-91 88 -58 137 -85 157 -85 25 0 57 27 198 167 92 92 168 172 168 178 0 13
-92 105 -105 105 -6 0 -69 -58 -140 -130z"/>
<path d="M2320 2800 l0 -80 400 0 400 0 0 80 0 80 -400 0 -400 0 0 -80z"/>
<path d="M1725 2560 c-71 -71 -133 -130 -138 -130 -4 0 -41 23 -82 50 -42 28
-81 53 -89 56 -9 4 -29 -16 -55 -55 -23 -33 -41 -62 -41 -65 0 -3 57 -44 127
-91 88 -58 137 -85 157 -85 25 0 57 27 198 167 92 92 168 172 168 178 0 13
-92 105 -105 105 -6 0 -69 -58 -140 -130z"/>
<path d="M2320 2320 l0 -80 400 0 400 0 0 80 0 80 -400 0 -400 0 0 -80z"/>
<path d="M3517 2064 c-164 -30 -329 -116 -453 -239 -349 -344 -351 -899 -4
-1245 346 -347 901 -345 1245 4 338 342 338 890 0 1232 -206 209 -497 301
-788 248z m375 -177 c117 -37 203 -90 294 -181 90 -90 143 -175 182 -294 22
-67 26 -94 26 -212 0 -118 -4 -145 -26 -212 -39 -119 -92 -204 -182 -294 -90
-90 -175 -143 -294 -182 -67 -22 -94 -26 -212 -26 -118 0 -145 4 -212 26 -119
39 -204 92 -294 182 -90 90 -143 175 -182 294 -22 67 -26 94 -26 212 0 118 4
145 26 212 39 119 92 204 182 294 110 110 236 177 381 204 86 16 251 5 337
-23z"/>
<path d="M3600 1360 l0 -320 80 0 80 0 0 320 0 320 -80 0 -80 0 0 -320z"/>
<path d="M3600 800 l0 -80 80 0 80 0 0 80 0 80 -80 0 -80 0 0 -80z"/>
<path d="M1385 1895 l-25 -24 0 -271 0 -271 25 -24 24 -25 271 0 271 0 24 25
25 24 0 271 0 271 -25 24 -24 25 -271 0 -271 0 -24 -25z m455 -295 l0 -160
-160 0 -160 0 0 160 0 160 160 0 160 0 0 -160z"/>
<path d="M2320 1360 l0 -80 200 0 200 0 0 80 0 80 -200 0 -200 0 0 -80z"/>
</g>
</svg>
