<svg width="14" height="14" viewBox="0 0 14 14" fill="none" xmlns="http://www.w3.org/2000/svg">
<g clip-path="url(#clip0_1644_2704)">
<path d="M10.7136 4.69274C12.0094 4.69274 13.0599 3.64223 13.0599 2.34637C13.0599 1.0505 12.0094 0 10.7136 0C9.41769 0 8.36719 1.0505 8.36719 2.34637C8.36719 3.64223 9.41769 4.69274 10.7136 4.69274Z" fill="#ffffff"/>
<path d="M10.7136 14C12.0094 14 13.0599 12.9495 13.0599 11.6536C13.0599 10.3578 12.0094 9.30725 10.7136 9.30725C9.41769 9.30725 8.36719 10.3578 8.36719 11.6536C8.36719 12.9495 9.41769 14 10.7136 14Z" fill="#ffffff"/>
<path d="M2.34637 9.38549C3.64223 9.38549 4.69274 8.33498 4.69274 7.03912C4.69274 5.74325 3.64223 4.69275 2.34637 4.69275C1.05051 4.69275 0 5.74325 0 7.03912C0 8.33498 1.05051 9.38549 2.34637 9.38549Z" fill="#ffffff"/>
<path d="M10.0595 11.7622L1.50391 7.04343L10.0595 2.24207C10.1056 2.1903 10.1634 2.15033 10.2281 2.12547C10.2928 2.10061 10.3625 2.09158 10.4314 2.09916C10.5003 2.10674 10.5664 2.13069 10.6242 2.16901C10.6819 2.20734 10.7297 2.25892 10.7634 2.31947C10.7972 2.38001 10.816 2.44775 10.8182 2.51703C10.8205 2.58631 10.8061 2.65513 10.7763 2.71773C10.7465 2.78032 10.7022 2.83489 10.6471 2.87686C10.5919 2.91884 10.5275 2.947 10.4592 2.95901L3.18982 7.03474L10.4549 11.0409C10.5229 11.0528 10.5872 11.0808 10.6423 11.1225C10.6974 11.1642 10.7417 11.2184 10.7717 11.2807C10.8016 11.343 10.8163 11.4115 10.8144 11.4806C10.8126 11.5496 10.7943 11.6173 10.7611 11.6779C10.7279 11.7384 10.6807 11.7902 10.6235 11.8289C10.5662 11.8676 10.5006 11.8921 10.432 11.9004C10.3634 11.9086 10.2938 11.9004 10.229 11.8764C10.1642 11.8524 10.1061 11.8132 10.0595 11.7622Z" fill="#ffffff"/>
</g>
<defs>
<clipPath id="clip0_1644_2704">
<rect width="13.0615" height="14" fill="white"/>
</clipPath>
</defs>
</svg>
